<svg width="145" height="52" viewBox="0 0 145 52" fill="none" xmlns="http://www.w3.org/2000/svg">
<path d="M56.5602 28.3956C56.0491 28.3956 55.5292 28.351 55.0003 28.2619C54.4714 28.1727 53.9812 28.0628 53.5296 27.9321C53.0839 27.7954 52.7214 27.6587 52.4421 27.5221L52.7006 25.3293C53.0809 25.5135 53.4969 25.6918 53.9485 25.8641C54.4001 26.0305 54.8725 26.1702 55.3657 26.2831C55.8649 26.39 56.367 26.4435 56.8721 26.4435C57.5496 26.4435 58.0903 26.3158 58.4944 26.0602C58.9044 25.7988 59.1094 25.4006 59.1094 24.8658C59.1094 24.4558 58.9995 24.123 58.7796 23.8675C58.5597 23.612 58.227 23.3892 57.7813 23.199C57.3356 23.0029 56.7711 22.792 56.0877 22.5662C55.4163 22.3463 54.8072 22.0937 54.2605 21.8085C53.7138 21.5173 53.277 21.143 52.9502 20.6854C52.6293 20.2278 52.4689 19.6366 52.4689 18.9116C52.4689 18.2342 52.6382 17.6311 52.9769 17.1022C53.3156 16.5733 53.8207 16.1603 54.4922 15.8632C55.1637 15.5661 55.9927 15.4175 56.9791 15.4175C57.7635 15.4175 58.5003 15.5037 59.1896 15.676C59.8789 15.8484 60.4583 16.0355 60.9278 16.2376L60.7138 18.3768C60.0245 18.0322 59.3709 17.7766 58.7529 17.6103C58.1408 17.4439 57.5109 17.3607 56.8632 17.3607C56.1739 17.3607 55.6272 17.4795 55.2231 17.7172C54.8191 17.9549 54.617 18.3263 54.617 18.8314C54.617 19.2058 54.721 19.5088 54.929 19.7406C55.137 19.9723 55.4341 20.1714 55.8203 20.3378C56.2125 20.5042 56.6909 20.6735 57.2554 20.8459C58.1468 21.1251 58.9014 21.4341 59.5194 21.7729C60.1374 22.1116 60.6039 22.5246 60.9189 23.0118C61.2397 23.4991 61.4002 24.1022 61.4002 24.8213C61.4002 25.2372 61.3289 25.6591 61.1863 26.087C61.0436 26.5089 60.7911 26.8951 60.4286 27.2457C60.0721 27.5904 59.5789 27.8697 58.949 28.0836C58.3191 28.2916 57.5228 28.3956 56.5602 28.3956ZM70.1007 25.0352H64.8328V23.2079H70.1007V25.0352ZM67.1949 17.6905H67.7476L64.0574 28.146H62.0073L66.4551 15.6671H68.4785L72.9352 28.146H70.8762L67.1949 17.6905ZM74.3898 28.146V15.6671H76.4844L82.1178 24.1884V15.6671H84.1946V28.146H82.4743L76.4577 19.1166V28.146H74.3898ZM85.6217 31.2122L85.4078 29.4295C85.9664 29.4295 86.3675 29.3107 86.6111 29.073C86.8548 28.8353 86.9766 28.4193 86.9766 27.8251V15.6671H89.0445V28.2797C89.0445 29.3315 88.7949 30.0832 88.2958 30.5348C87.8026 30.9864 87.1044 31.2122 86.2011 31.2122H85.6217ZM91.8337 28.146V15.6671H99.6865V17.6281H93.9373V20.6498H98.4386V22.6107H93.9373V26.185H99.8559V28.146H91.8337ZM101.879 28.146V15.6671H109.732V17.6281H103.982V20.6498H108.484V22.6107H103.982V26.185H109.901V28.146H101.879ZM115.008 28.146L110.56 15.6671H112.673L116.256 25.8641H115.775L119.376 15.6671H121.488L117.031 28.146H115.008ZM122.892 28.146V15.6671H124.96V28.146H122.892ZM127.749 28.146V15.6671H129.843L135.477 24.1884V15.6671H137.554V28.146H135.833L129.817 19.1166V28.146H127.749ZM140.336 28.146V15.6671H142.404V28.146H140.336Z" fill="black"/>
<path d="M54.1866 39.1973C53.7209 39.1973 53.3095 39.0975 52.9525 38.8979C52.5954 38.6983 52.316 38.4177 52.1142 38.0563C51.9123 37.6926 51.8114 37.2656 51.8114 36.7755C51.8114 36.2854 51.9146 35.8596 52.1208 35.4981C52.3271 35.1344 52.6109 34.8528 52.9724 34.6532C53.3339 34.4536 53.7475 34.3538 54.2132 34.3538C54.455 34.3538 54.6801 34.3804 54.8885 34.4336C55.097 34.4846 55.2777 34.5489 55.4307 34.6266L55.3476 35.3551C55.179 35.2775 55.0016 35.2132 54.8153 35.1621C54.629 35.1089 54.4261 35.0823 54.2066 35.0823C53.865 35.0823 53.579 35.1566 53.3483 35.3052C53.1199 35.4516 52.9469 35.6534 52.8294 35.9106C52.7141 36.1657 52.6564 36.454 52.6564 36.7755C52.6564 37.0971 52.7129 37.3865 52.826 37.6438C52.9414 37.8988 53.1121 38.1006 53.3383 38.2492C53.5668 38.3956 53.8495 38.4688 54.1866 38.4688C54.4128 38.4688 54.618 38.4444 54.802 38.3956C54.9883 38.3468 55.1702 38.2802 55.3476 38.196L55.4307 38.9278C55.2578 39.0077 55.067 39.072 54.8586 39.1208C54.6501 39.1718 54.4261 39.1973 54.1866 39.1973ZM60.4161 37.9432H58.4501V37.2612H60.4161V37.9432ZM59.3317 35.2021H59.5379L58.1607 39.1041H57.3956L59.0556 34.4469H59.8107L61.474 39.1041H60.7055L59.3317 35.2021ZM63.7466 39.1041V34.4469H64.5284L66.6308 37.6271V34.4469H67.4059V39.1041H66.7638L64.5184 35.7343V39.1041H63.7466ZM72.273 39.1973C71.8073 39.1973 71.3959 39.0975 71.0388 38.8979C70.6818 38.6983 70.4024 38.4177 70.2006 38.0563C69.9987 37.6926 69.8978 37.2656 69.8978 36.7755C69.8978 36.2854 70.001 35.8596 70.2072 35.4981C70.4135 35.1344 70.6973 34.8528 71.0588 34.6532C71.4203 34.4536 71.8339 34.3538 72.2996 34.3538C72.5413 34.3538 72.7664 34.3804 72.9749 34.4336C73.1834 34.4846 73.3641 34.5489 73.5171 34.6266L73.434 35.3551C73.2654 35.2775 73.088 35.2132 72.9017 35.1621C72.7154 35.1089 72.5125 35.0823 72.293 35.0823C71.9514 35.0823 71.6654 35.1566 71.4347 35.3052C71.2063 35.4516 71.0333 35.6534 70.9158 35.9106C70.8004 36.1657 70.7428 36.454 70.7428 36.7755C70.7428 37.0971 70.7993 37.3865 70.9124 37.6438C71.0278 37.8988 71.1985 38.1006 71.4247 38.2492C71.6532 38.3956 71.9359 38.4688 72.273 38.4688C72.4992 38.4688 72.7043 38.4444 72.8884 38.3956C73.0747 38.3468 73.2566 38.2802 73.434 38.196L73.5171 38.9278C73.3442 39.0077 73.1534 39.072 72.945 39.1208C72.7365 39.1718 72.5125 39.1973 72.273 39.1973ZM75.971 39.1041V34.4469H78.9017V35.1788H76.7561V36.3065H78.436V37.0383H76.7561V38.3723H78.9649V39.1041H75.971ZM81.4497 39.1041V34.4469H83.083C83.4046 34.4469 83.6863 34.4979 83.928 34.6C84.1697 34.6998 84.3571 34.8539 84.4902 35.0623C84.6232 35.2708 84.6898 35.5369 84.6898 35.8607C84.6898 36.1934 84.6177 36.4628 84.4736 36.6691C84.3316 36.8753 84.1376 37.0383 83.8914 37.1581L84.9393 39.1041H84.0544L83.1363 37.3444C83.1296 37.3444 83.1241 37.3444 83.1196 37.3444C83.1152 37.3444 83.1097 37.3444 83.103 37.3444H82.2348V39.1041H81.4497ZM82.2348 36.6857H82.9367C83.276 36.6857 83.5177 36.6125 83.6619 36.4662C83.8082 36.3176 83.8814 36.1257 83.8814 35.8907C83.8814 35.6423 83.8093 35.4493 83.6652 35.3118C83.521 35.1743 83.2849 35.1056 82.9566 35.1056H82.2348V36.6857ZM91.8539 39.1973C91.6631 39.1973 91.4691 39.1806 91.2717 39.1474C91.0743 39.1141 90.8914 39.0731 90.7228 39.0243C90.5565 38.9733 90.4212 38.9223 90.317 38.8713L90.4134 38.0529C90.5554 38.1217 90.7106 38.1882 90.8792 38.2525C91.0477 38.3146 91.224 38.3667 91.4081 38.4089C91.5944 38.4488 91.7818 38.4688 91.9703 38.4688C92.2231 38.4688 92.4249 38.4211 92.5757 38.3257C92.7287 38.2281 92.8053 38.0795 92.8053 37.8799C92.8053 37.7269 92.7642 37.6027 92.6822 37.5074C92.6001 37.412 92.4759 37.3288 92.3096 37.2579C92.1433 37.1847 91.9326 37.106 91.6775 37.0217C91.4269 36.9396 91.1996 36.8454 90.9956 36.7389C90.7916 36.6303 90.6286 36.4906 90.5066 36.3198C90.3868 36.149 90.327 35.9284 90.327 35.6578C90.327 35.405 90.3902 35.1799 90.5166 34.9825C90.643 34.7851 90.8315 34.631 91.0821 34.5201C91.3327 34.4092 91.6421 34.3538 92.0102 34.3538C92.3029 34.3538 92.5779 34.3859 92.8352 34.4503C93.0924 34.5146 93.3087 34.5844 93.4839 34.6598L93.404 35.4582C93.1468 35.3296 92.9028 35.2342 92.6722 35.1721C92.4438 35.11 92.2087 35.079 91.967 35.079C91.7097 35.079 91.5057 35.1233 91.3549 35.212C91.2041 35.3008 91.1287 35.4394 91.1287 35.6279C91.1287 35.7676 91.1675 35.8807 91.2451 35.9672C91.3227 36.0537 91.4336 36.128 91.5777 36.1901C91.7241 36.2521 91.9026 36.3154 92.1133 36.3797C92.446 36.4839 92.7276 36.5992 92.9583 36.7256C93.1889 36.852 93.363 37.0062 93.4805 37.188C93.6003 37.3699 93.6602 37.595 93.6602 37.8633C93.6602 38.0186 93.6336 38.176 93.5803 38.3357C93.5271 38.4931 93.4329 38.6373 93.2976 38.7681C93.1645 38.8968 92.9804 39.001 92.7454 39.0808C92.5103 39.1585 92.2131 39.1973 91.8539 39.1973ZM96.1056 39.1041V34.4469H99.0363V35.1788H96.8906V36.3065H98.5706V37.0383H96.8906V38.3723H99.0995V39.1041H96.1056ZM102.735 39.1041L101.075 34.4469H101.864L103.201 38.2525H103.021L104.365 34.4469H105.154L103.49 39.1041H102.735ZM109.633 37.9432H107.667V37.2612H109.633V37.9432ZM108.549 35.2021H108.755L107.378 39.1041H106.613L108.273 34.4469H109.028L110.691 39.1041H109.923L108.549 35.2021ZM117.1 39.1041V35.1788H115.769V34.4469H119.205V35.1788H117.871V39.1041H117.1ZM121.556 39.1041V34.4469H123.19C123.511 34.4469 123.793 34.4979 124.035 34.6C124.276 34.6998 124.464 34.8539 124.597 35.0623C124.73 35.2708 124.796 35.5369 124.796 35.8607C124.796 36.1934 124.724 36.4628 124.58 36.6691C124.438 36.8753 124.244 37.0383 123.998 37.1581L125.046 39.1041H124.161L123.243 37.3444C123.236 37.3444 123.231 37.3444 123.226 37.3444C123.222 37.3444 123.216 37.3444 123.21 37.3444H122.341V39.1041H121.556ZM122.341 36.6857H123.043C123.383 36.6857 123.624 36.6125 123.769 36.4662C123.915 36.3176 123.988 36.1257 123.988 35.8907C123.988 35.6423 123.916 35.4493 123.772 35.3118C123.628 35.1743 123.392 35.1056 123.063 35.1056H122.341V36.6857ZM129.269 39.1973C128.832 39.1973 128.47 39.1119 128.184 38.9411C127.9 38.7704 127.689 38.5297 127.549 38.2193C127.409 37.9066 127.339 37.5384 127.339 37.1148V34.4469H128.111V36.9119C128.111 37.1315 128.127 37.3355 128.158 37.524C128.189 37.7125 128.244 37.8777 128.324 38.0197C128.406 38.1616 128.523 38.2725 128.677 38.3523C128.83 38.4299 129.027 38.4688 129.269 38.4688C129.513 38.4688 129.71 38.4299 129.861 38.3523C130.014 38.2725 130.131 38.1616 130.213 38.0197C130.295 37.8777 130.351 37.7125 130.38 37.524C130.411 37.3333 130.426 37.1293 130.426 36.9119V34.4469H131.198V37.1148C131.198 37.5384 131.128 37.9066 130.988 38.2193C130.849 38.5297 130.636 38.7704 130.35 38.9411C130.066 39.1119 129.706 39.1973 129.269 39.1973ZM135.255 39.1973C135.064 39.1973 134.87 39.1806 134.672 39.1474C134.475 39.1141 134.292 39.0731 134.124 39.0243C133.957 38.9733 133.822 38.9223 133.718 38.8713L133.814 38.0529C133.956 38.1217 134.111 38.1882 134.28 38.2525C134.449 38.3146 134.625 38.3667 134.809 38.4089C134.995 38.4488 135.183 38.4688 135.371 38.4688C135.624 38.4688 135.826 38.4211 135.977 38.3257C136.13 38.2281 136.206 38.0795 136.206 37.8799C136.206 37.7269 136.165 37.6027 136.083 37.5074C136.001 37.412 135.877 37.3288 135.71 37.2579C135.544 37.1847 135.333 37.106 135.078 37.0217C134.828 36.9396 134.6 36.8454 134.396 36.7389C134.192 36.6303 134.029 36.4906 133.907 36.3198C133.788 36.149 133.728 35.9284 133.728 35.6578C133.728 35.405 133.791 35.1799 133.917 34.9825C134.044 34.7851 134.232 34.631 134.483 34.5201C134.733 34.4092 135.043 34.3538 135.411 34.3538C135.704 34.3538 135.979 34.3859 136.236 34.4503C136.493 34.5146 136.709 34.5844 136.885 34.6598L136.805 35.4582C136.548 35.3296 136.304 35.2342 136.073 35.1721C135.845 35.11 135.609 35.079 135.368 35.079C135.11 35.079 134.906 35.1233 134.756 35.212C134.605 35.3008 134.529 35.4394 134.529 35.6279C134.529 35.7676 134.568 35.8807 134.646 35.9672C134.723 36.0537 134.834 36.128 134.979 36.1901C135.125 36.2521 135.303 36.3154 135.514 36.3797C135.847 36.4839 136.128 36.5992 136.359 36.7256C136.59 36.852 136.764 37.0062 136.881 37.188C137.001 37.3699 137.061 37.595 137.061 37.8633C137.061 38.0186 137.034 38.176 136.981 38.3357C136.928 38.4931 136.834 38.6373 136.698 38.7681C136.565 38.8968 136.381 39.001 136.146 39.0808C135.911 39.1585 135.614 39.1973 135.255 39.1973ZM140.418 39.1041V35.1788H139.087V34.4469H142.524V35.1788H141.19V39.1041H140.418Z" fill="black"/>
<path d="M10.8314 30.9568C10.1327 29.91 10.3442 38.5438 13.0911 41.5011C14.4348 42.9385 16.6424 45.1054 19.568 45.815C19.0214 41.2859 15.8842 37.0056 11.8383 35.6292C16.9448 36.824 21.1232 42.1359 21.0234 47.3608C21.089 49.5215 21.3526 52.6665 21.4912 51.6334C23.9565 32.8673 15.5297 38.0448 10.8314 30.9568Z" fill="url(#paint0_radial_654_1909)"/>
<path d="M11.2847 39.9534C9.41368 37.7926 5.74323 34.7087 0.551864 36.5444C-1.97157 37.4355 4.67665 34.9986 10.008 41.5938C11.4977 43.4371 12.8949 46.7042 19.4642 46.6492C13.2361 43.9086 13.3865 42.3766 11.2847 39.9534Z" fill="url(#paint1_radial_654_1909)"/>
<path d="M34.0215 39.8752C35.8924 37.7145 39.5629 34.6305 44.7557 36.4663C47.2792 37.3574 40.631 34.9205 35.2996 41.5156C33.8099 43.359 32.4127 46.6261 25.8434 46.565C32.07 43.8305 31.9181 42.2985 34.0215 39.8752Z" fill="url(#paint2_radial_654_1909)"/>
<path d="M34.4171 30.9568C35.1098 29.91 34.9042 38.5438 32.1499 41.5011C30.8122 42.9385 28.5986 45.1054 25.673 45.815C26.2196 41.292 29.3568 37.0056 33.4086 35.6292C28.2962 36.824 24.1178 42.1359 24.2161 47.3608C24.1833 49.4528 23.8928 52.6665 23.7543 51.6334C21.2845 32.8673 29.7113 38.0448 34.4171 30.9568Z" fill="url(#paint3_radial_654_1909)"/>
<path d="M25.4814 14.969C25.0111 14.3935 23.7615 13.7421 22.5118 13.7421C21.2622 13.7421 20.0126 14.3935 19.5423 14.969C18.5192 16.224 19.164 18.8325 19.164 18.8325C20.0126 17.439 25.0111 17.439 25.8597 18.8325C25.8597 18.8325 26.5045 16.224 25.4814 14.969Z" fill="#9370A7"/>
<path d="M23.5563 24.77C25.2322 26.9402 27.5636 29.995 28.5854 31.2832L28.8761 31.5218L26.7859 36.2019C26.7859 36.2019 25.54 34.7363 24.4049 33.191C23.2685 31.6456 19.6329 26.6924 18.7243 24.6474C17.8157 22.6025 16.9978 20.8306 17.5879 18.6485C18.1794 16.469 19.5423 14.9689 19.5423 14.9689C19.5423 14.9689 18.8602 16.4836 19.8087 18.6978C20.9078 21.2663 22.3759 23.2393 23.5563 24.77Z" fill="#9644B2"/>
<path d="M21.4666 24.77C19.7907 26.9402 17.4593 29.995 16.4375 31.2832C16.4367 31.2832 16.4337 31.2832 16.4337 31.2832L19.2909 35.3539C19.2909 35.3539 19.4829 34.7363 20.618 33.191C21.7544 31.6456 25.39 26.6924 26.2986 24.6474C27.2071 22.6025 28.0251 20.8306 27.4349 18.6485C26.8448 16.469 25.4819 14.9689 25.4819 14.9689C25.4819 14.9689 26.164 16.4836 25.2155 18.6978C24.1151 21.2663 22.6483 23.2393 21.4666 24.77Z" fill="#6E3083"/>
<circle cx="22.6567" cy="10.378" r="2.11653" fill="#6E3083"/>
<path d="M38.5114 35.3046C41.2066 32.2501 42.9623 28.4823 43.5675 24.454C44.1727 20.4256 43.6016 16.3082 41.9228 12.5967C40.2441 8.88516 37.5292 5.73743 34.1044 3.53187C30.6796 1.3263 26.6907 0.156772 22.6172 0.16385C18.5436 0.170928 14.5588 1.35432 11.1417 3.57177C7.72461 5.78922 5.02063 8.94637 3.3548 12.6637C1.68896 16.3811 1.13217 20.5004 1.75134 24.5266C2.37052 28.5528 4.13931 32.3145 6.84511 35.3596L7.01432 35.2092C4.33749 32.1968 2.58763 28.4753 1.97509 24.4922C1.36254 20.5091 1.91338 16.4338 3.56138 12.7563C5.20938 9.07873 7.88441 5.95538 11.2649 3.76166C14.6455 1.56795 18.5876 0.397226 22.6175 0.390224C26.6475 0.383221 30.5937 1.54023 33.9818 3.72219C37.3699 5.90415 40.0558 9.01818 41.7166 12.69C43.3773 16.3618 43.9423 20.4351 43.3436 24.4203C42.7449 28.4055 41.008 32.133 38.3417 35.1548L38.5114 35.3046Z" fill="#379F44"/>
<path d="M36.1267 29.3131C37.5497 26.9169 38.3079 24.1845 38.323 21.3976C38.3381 18.6108 37.6097 15.8703 36.2128 13.4588C34.8159 11.0473 32.801 9.05194 30.376 7.67854C27.9511 6.30515 25.2036 5.60338 22.4171 5.6456C19.6305 5.68781 16.9056 6.47248 14.5233 7.91871C12.141 9.36493 10.1876 11.4204 8.86436 13.8731C7.54114 16.3259 6.89605 19.0871 6.99559 21.8722C7.09513 24.6574 7.9357 27.3656 9.43063 29.7176L9.57528 29.6256C8.0967 27.2993 7.26533 24.6208 7.16688 21.8661C7.06843 19.1115 7.70646 16.3804 9.0152 13.9545C10.3239 11.5286 12.256 9.49562 14.6122 8.06522C16.9685 6.63481 19.6635 5.85873 22.4196 5.81697C25.1757 5.77522 27.8931 6.46931 30.2916 7.82768C32.6901 9.18605 34.6828 11.1595 36.0645 13.5447C37.4461 15.9299 38.1665 18.6403 38.1516 21.3967C38.1366 24.1531 37.3868 26.8556 35.9793 29.2256L36.1267 29.3131Z" fill="#7DBC41"/>
<path d="M8.07729 31.0606C8.1839 31.2308 8.24643 31.3952 8.26487 31.5537C8.28207 31.7102 8.26333 31.8738 8.20866 32.0447L7.76905 31.9437C7.81226 31.8302 7.83117 31.718 7.8258 31.6071C7.81842 31.4974 7.77774 31.3835 7.70374 31.2654C7.63726 31.1593 7.56356 31.0883 7.48263 31.0526C7.40045 31.0149 7.32232 31.0192 7.24824 31.0656C7.18418 31.1058 7.14341 31.1564 7.12594 31.2175C7.10848 31.2786 7.10454 31.348 7.11414 31.4256C7.12248 31.5013 7.13822 31.582 7.16134 31.6679C7.18122 31.753 7.19871 31.841 7.21383 31.9319C7.2277 32.0208 7.23142 32.1091 7.225 32.1967C7.21533 32.2836 7.18674 32.3671 7.13924 32.447C7.08974 32.5282 7.01093 32.6026 6.90282 32.6704C6.77468 32.7506 6.64612 32.788 6.51714 32.7823C6.38817 32.7767 6.26579 32.7349 6.15001 32.6569C6.03423 32.5789 5.93369 32.4718 5.8484 32.3356C5.7581 32.1915 5.7036 32.0444 5.68492 31.8944C5.66623 31.7444 5.67673 31.6054 5.71641 31.4774L6.15602 31.5784C6.12683 31.6831 6.11691 31.7785 6.12627 31.8647C6.13437 31.9488 6.16413 32.0319 6.21556 32.114C6.2745 32.2081 6.33893 32.2709 6.40883 32.3024C6.47874 32.3339 6.54772 32.3283 6.6158 32.2856C6.67386 32.2493 6.70962 32.2018 6.72308 32.1432C6.73655 32.0845 6.73811 32.018 6.72776 31.9437C6.71616 31.8673 6.70043 31.7866 6.68055 31.7014C6.65943 31.6143 6.64193 31.5263 6.62806 31.4374C6.61294 31.3465 6.61122 31.257 6.6229 31.1688C6.63333 31.0787 6.66529 30.9917 6.7188 30.908C6.7703 30.8256 6.85111 30.7499 6.96123 30.6809C7.15744 30.558 7.35487 30.5305 7.55354 30.5984C7.7522 30.6663 7.92678 30.8204 8.07729 31.0606Z" fill="#F7AF00"/>
<path d="M5.19689 23.9861L2.63933 23.1668L2.61076 22.7744L5.02293 21.5968L5.06024 22.1093L3.07695 23.0283L3.06408 22.8516L5.16035 23.4842L5.19689 23.9861ZM4.69527 23.4897L4.29234 23.519L4.19507 22.183L4.598 22.1536L4.69527 23.4897Z" fill="#F7AF00"/>
<path d="M6.01959 15.3198L3.73901 14.317L3.87453 14.0088L4.37421 14.0698L6.21359 14.8786L6.01959 15.3198ZM6.71286 13.7432L4.36622 14.3257L3.87453 14.0088L6.22117 13.4264L6.71286 13.7432ZM6.71286 13.7432L6.22901 13.6814L4.37665 12.8669L4.57208 12.4225L6.85265 13.4253L6.71286 13.7432Z" fill="#F7AF00"/>
<path d="M11.1301 7.91902C11.0116 8.01287 10.8893 8.07348 10.7633 8.10088C10.6378 8.12495 10.5145 8.12154 10.3937 8.09066L10.4558 7.64378C10.5272 7.66555 10.5964 7.67108 10.6632 7.66035C10.7305 7.64631 10.7928 7.61656 10.8502 7.57111C10.9076 7.52565 10.9481 7.47402 10.9717 7.41621C10.9971 7.35694 11.0025 7.29535 10.9881 7.23144C10.9755 7.16607 10.9429 7.10004 10.8901 7.03335L9.84533 5.71347L10.226 5.41214L11.2532 6.70979C11.3617 6.84688 11.4292 6.98928 11.4557 7.13701C11.4827 7.28142 11.4688 7.42192 11.4142 7.55853C11.3601 7.69182 11.2653 7.81198 11.1301 7.91902Z" fill="#F7AF00"/>
<path d="M18.2029 4.11924L17.7505 1.66934L18.2245 1.58182L18.6769 4.03172L18.2029 4.11924ZM18.5514 4.05488L18.4742 3.63669L19.8298 3.38636L19.9071 3.80455L18.5514 4.05488ZM18.3577 3.00593L18.2831 2.60168L19.5167 2.37386L19.5914 2.77811L18.3577 3.00593ZM18.1762 2.02318L18.099 1.60499L19.4372 1.35787L19.5144 1.77606L18.1762 2.02318Z" fill="#F7AF00"/>
<path d="M26.7311 4.01574L27.4777 1.63892L27.9375 1.78335L27.1909 4.16017L26.7311 4.01574ZM27.0692 4.12194L27.1967 3.71622L28.5119 4.12933L28.3844 4.53505L27.0692 4.12194ZM27.3889 3.10427L27.5121 2.71207L28.7089 3.08802L28.5858 3.48021L27.3889 3.10427ZM27.6884 2.15083L27.8158 1.74512L29.1141 2.15292L28.9867 2.55863L27.6884 2.15083Z" fill="#F7AF00"/>
<path d="M34.8749 8.47554L35.9569 6.02614L36.3231 6.39667L35.422 8.35348L35.28 8.2098L37.2523 7.33687L37.6135 7.70236L35.144 8.74777L34.8749 8.47554Z" fill="#F7AF00"/>
<path d="M39.1619 14.8926L41.5244 14.1019L41.6773 14.5589L39.3148 15.3496L39.1619 14.8926Z" fill="#F7AF00"/>
<path d="M40.3388 22.3013L42.8079 22.633L42.7631 22.9667L42.2661 23.0465L40.2746 22.779L40.3388 22.3013ZM40.1095 24.0083L42.2029 22.7985L42.7631 22.9667L40.6697 24.1765L40.1095 24.0083ZM40.1095 24.0083L40.5915 23.9336L42.597 24.203L42.5324 24.6842L40.0632 24.3525L40.1095 24.0083Z" fill="#F7AF00"/>
<path d="M37.7791 30.3914L39.8492 31.7776L39.581 32.1781L37.511 30.7918L37.7791 30.3914Z" fill="#F7AF00"/>
<defs>
<radialGradient id="paint0_radial_654_1909" cx="0" cy="0" r="1" gradientUnits="userSpaceOnUse" gradientTransform="translate(22.704 42.36) scale(23.6305 24.2067)">
<stop stop-color="#8DC63F"/>
<stop offset="0.0725" stop-color="#80BD40"/>
<stop offset="0.3346" stop-color="#58A943"/>
<stop offset="0.5836" stop-color="#349D44"/>
<stop offset="0.8118" stop-color="#0E9644"/>
<stop offset="1" stop-color="#009444"/>
</radialGradient>
<radialGradient id="paint1_radial_654_1909" cx="0" cy="0" r="1" gradientUnits="userSpaceOnUse" gradientTransform="translate(22.7033 42.358) scale(23.6305 24.2066)">
<stop stop-color="#8DC63F"/>
<stop offset="0.0725" stop-color="#80BD40"/>
<stop offset="0.3346" stop-color="#58A943"/>
<stop offset="0.5836" stop-color="#349D44"/>
<stop offset="0.8118" stop-color="#0E9644"/>
<stop offset="1" stop-color="#009444"/>
</radialGradient>
<radialGradient id="paint2_radial_654_1909" cx="0" cy="0" r="1" gradientUnits="userSpaceOnUse" gradientTransform="translate(22.6992 42.3607) scale(23.6305 24.2066)">
<stop stop-color="#8DC63F"/>
<stop offset="0.0725" stop-color="#80BD40"/>
<stop offset="0.3346" stop-color="#58A943"/>
<stop offset="0.5836" stop-color="#349D44"/>
<stop offset="0.8118" stop-color="#0E9644"/>
<stop offset="1" stop-color="#009444"/>
</radialGradient>
<radialGradient id="paint3_radial_654_1909" cx="0" cy="0" r="1" gradientUnits="userSpaceOnUse" gradientTransform="translate(22.7061 42.3599) scale(23.6306 24.2068)">
<stop stop-color="#8DC63F"/>
<stop offset="0.0725" stop-color="#80BD40"/>
<stop offset="0.3346" stop-color="#58A943"/>
<stop offset="0.5836" stop-color="#349D44"/>
<stop offset="0.8118" stop-color="#0E9644"/>
<stop offset="1" stop-color="#009444"/>
</radialGradient>
</defs>
</svg>
