<svg width="66" height="63" viewBox="0 0 66 63" fill="none" xmlns="http://www.w3.org/2000/svg">
<path d="M31.9832 27.0532C37.4881 20.6957 48.2874 11.622 63.566 17.0232C70.9906 19.6452 51.4299 12.4751 35.7437 31.8796C31.3609 37.3032 27.2498 46.9157 7.92139 46.7361C26.2417 38.6905 25.7946 34.1829 31.9832 27.0532Z" fill="#D4D4D4"/>
<path d="M33.1443 0.812483C35.1823 -2.26746 34.5774 23.1353 26.4736 31.8364C22.5378 36.0657 16.0248 42.4411 7.41693 44.5288C9.02544 31.2213 18.2557 18.6097 30.1771 14.56C15.1351 18.0754 2.84124 33.7041 3.1305 49.0769C3.03408 55.2323 2.17942 64.6877 1.77182 61.6481C-5.49495 6.43361 19.2988 21.6672 33.1443 0.812483Z" fill="#D4D4D4"/>
</svg>
